# xmcd
#
# Track frame offsets:
#	150
#	9519
#	21391
#	36202
#	46830
#	61179
#	71316
#	85895
#	97610
#	109371
#	121040
#	135839
#	146863
#	156985
#	167114
#	177632
#	189298
#	201255
#	214141
#	224773
#	236963
#	249223
#
# Disc length: 3528 seconds
#
# Revision: 1
# Processed by: cddbd v1.5.1PL2 Copyright (c) Steve Scherf et al.
# Submitted via: audiograbber 1.83.01
#
DISCID=380dc616
DTITLE=Jackie Edwards - I Feel So Bad
DYEAR=2006
DGENRE=Soul
TTITLE0=I Feel So Bad
TTITLE1=Come On Home
TTITLE2=Come Back Girl
TTITLE3=Tell Me What It's All About
TTITLE4=If This Is Heaven
TTITLE5=Baby I Want To Be Near You
TTITLE6=I Don't Know
TTITLE7=In A Dream
TTITLE8=How Can You Hang On To A Dream
TTITLE9=Put Your Tears Away
TTITLE10=Tell Me Right Now
TTITLE11=Do You Want Me
TTITLE12=Don't Want To Be Made A Fool Of
TTITLE13=Summertime
TTITLE14=Hush
TTITLE15=Keep On Running
TTITLE16=Somebody Help Me
TTITLE17=Ooh, Ooh
TTITLE18=Oh Mary
TTITLE19=My Love And I
TTITLE20=L-O-V-E (Love)
TTITLE21=I Must Go Back
EXTD=
EXTT0=
EXTT1=
EXTT2=
EXTT3=
EXTT4=
EXTT5=
EXTT6=
EXTT7=
EXTT8=
EXTT9=
EXTT10=
EXTT11=
EXTT12=
EXTT13=
EXTT14=
EXTT15=
EXTT16=
EXTT17=
EXTT18=
EXTT19=
EXTT20=
EXTT21=
PLAYORDER=
